<svg id="Layer_1" data-name="Layer 1" xmlns="http://www.w3.org/2000/svg" viewBox="0 0 1715.86 788"><defs><style>.cls-1{opacity:0.16;}.cls-1,.cls-2{isolation:isolate;}.cls-3{fill:#d79ca4;}</style></defs><title>BG Ludmila</title><g id="LUDMILA_TAMAYO" data-name="LUDMILA TAMAYO" class="cls-1"><g class="cls-2"><path class="cls-3" d="M0,348v-4.64H8.35V4.64H0V0H71V4.64q-6,0-7.89,4.64a10.31,10.31,0,0,0-.92,4.64V343.36H136a27,27,0,0,0,15.31-10.9,63.13,63.13,0,0,0,8.59-19,151.85,151.85,0,0,0,4.41-22.73q1.38-11.83,3-21.81a71.28,71.28,0,0,1,4.41-16.47c1.86-4.33,4.79-6.5,8.82-6.5V348Z"/><path class="cls-3" d="M195.34,4.64H187V0h71V4.64q-6,0-7.88,4.64a10.17,10.17,0,0,0-.93,4.64v255.2a47.68,47.68,0,0,0,3.94,19.26A48.83,48.83,0,0,0,264,304.15a53.41,53.41,0,0,0,16,10.67,47.52,47.52,0,0,0,19.26,3.95,49.18,49.18,0,0,0,19.49-3.95,50,50,0,0,0,16-10.67,50.78,50.78,0,0,0,10.67-15.77,47.85,47.85,0,0,0,3.94-19.26V4.64H316.45V0h71V4.64q-12.53,0-19,6a42,42,0,0,0-9.75,13,51.83,51.83,0,0,0-4.17,19V269.12a75.74,75.74,0,0,1-6.27,30.62,78.32,78.32,0,0,1-17.17,25.06,83.49,83.49,0,0,1-25.28,16.94A76,76,0,0,1,275.15,348a77.14,77.14,0,0,1-31.09-6.26,83.24,83.24,0,0,1-25.28-16.94,78.17,78.17,0,0,1-17.17-25.06,75.74,75.74,0,0,1-6.27-30.62Z"/><path class="cls-3" d="M488.59,0a102.79,102.79,0,0,1,51.5,13.69A140.1,140.1,0,0,1,582.32,51q18.09,23.67,28.53,55.22T621.29,174q0,36.19-10.44,67.74T582.32,297a140,140,0,0,1-42.23,37.35A102.69,102.69,0,0,1,488.59,348H400.43v-4.64h8.35V4.64h-8.35V0Zm0,343.36q16.7,0,31.09-13.46T545,293.48q10.9-23,17.17-53.82A329.38,329.38,0,0,0,568.4,174a329.45,329.45,0,0,0-6.27-65.66Q555.88,77.5,545,54.52T519.68,18.1Q505.28,4.64,488.59,4.64H471.42c-4,0-6.66,1.55-7.89,4.64a10.31,10.31,0,0,0-.93,4.64V334.08a10.28,10.28,0,0,0,.93,4.64c1.23,3.1,3.87,4.64,7.89,4.64Z"/><path class="cls-3" d="M861.17,0h71.46V4.64c-4,0-6.66,1.55-7.89,4.64a10.31,10.31,0,0,0-.93,4.64V334.08a10.28,10.28,0,0,0,.93,4.64c1.23,3.1,3.87,4.64,7.89,4.64V348H861.17v-4.64H870V77.49L797.14,269.12l-13.45,36.19q-3.72,10.68-3.25,19a23.72,23.72,0,0,0,4.87,13.22q4.41,5.81,16.94,5.8L800.39,348H773L672.33,78.42V305.31a51.78,51.78,0,0,0,4.17,19,36.8,36.8,0,0,0,10,13.22q6.72,5.81,19.25,5.8V348h-71v-4.64h33V65.42L645,4.64H634.74V0h71l1.4,4.64c-3.72,0-5.57,1.55-5.57,4.64a8.44,8.44,0,0,0,.46,4.64l92.8,248.7L870,64.5V4.64H859.32Z"/><path class="cls-3" d="M947.47,0h71V4.64q-6,0-7.88,4.64a10.17,10.17,0,0,0-.93,4.64V334.08a10.15,10.15,0,0,0,.93,4.64q1.84,4.65,7.88,4.64V348h-71v-4.64h8.36V4.64h-8.36Z"/><path class="cls-3" d="M1033.77,348v-4.64h8.35V4.64h-8.35V0h71V4.64q-6,0-7.88,4.64a10.17,10.17,0,0,0-.93,4.64V343.36h73.77a27,27,0,0,0,15.31-10.9,63.13,63.13,0,0,0,8.59-19A151.85,151.85,0,0,0,1198,290.7q1.4-11.83,3-21.81a71.28,71.28,0,0,1,4.41-16.47c1.86-4.33,4.79-6.5,8.82-6.5V348Z"/><path class="cls-3" d="M1433.74,343.36l.93,4.64h-70.53l-.93-4.64h8.35L1346,225h-68.21l-15.31,80.27a61.08,61.08,0,0,0,1.86,19,35.8,35.8,0,0,0,7.42,13.22q5.1,5.81,16.71,5.8l-.93,4.64h-71l.92-4.64h33L1306.6,45.47l-8.81-40.83h-8.36L1288.51,0H1359l.93,4.64c-2.17,0-3.71.54-4.64,1.62a8.43,8.43,0,0,0-1.85,3.48,11.23,11.23,0,0,0,0,4.64l70.06,319.7a18.77,18.77,0,0,0,2.55,5.1,9.81,9.81,0,0,0,6.73,4.18Zm-89.09-123.42-35.26-162.4-30.63,162.4Z"/></g><g class="cls-2"><path class="cls-3" d="M651.46,440V542.08c-4,0-7-2.16-8.82-6.5a71,71,0,0,1-4.41-16.47q-1.63-10-3-21.81a152.1,152.1,0,0,0-4.41-22.73,63.24,63.24,0,0,0-8.59-19,27.1,27.1,0,0,0-15.77-10.9H585.57c-2.79,0-4.72.78-5.8,2.32a22.52,22.52,0,0,0-2.55,4.64V776.4a22,22,0,0,0,2.55,4.64q1.62,2.33,5.8,2.32H586V788H514.58v-4.64H515q4.17,0,6-2.32a11,11,0,0,0,2.32-4.64V444.64H494.16a27.13,27.13,0,0,0-15.78,10.9,63.23,63.23,0,0,0-8.58,19,150.84,150.84,0,0,0-4.41,22.73q-1.39,11.83-3,21.81A72,72,0,0,1,458,535.58q-2.79,6.51-8.82,6.5V440Z"/><path class="cls-3" d="M817.57,783.36l.93,4.64H748l-.93-4.64h8.35L729.87,665H661.66l-15.31,80.27a61.08,61.08,0,0,0,1.86,19,35.8,35.8,0,0,0,7.42,13.22q5.1,5.81,16.7,5.8l-.92,4.64h-71l.92-4.64h32.95l56.14-297.89-8.81-40.83h-8.36l-.93-4.64h70.53l.93,4.64c-2.17,0-3.71.54-4.64,1.62a8.58,8.58,0,0,0-1.86,3.48,11.58,11.58,0,0,0,0,4.64l70.07,319.7a18.77,18.77,0,0,0,2.55,5.1,9.81,9.81,0,0,0,6.73,4.18ZM728.48,659.94l-35.27-162.4-30.62,162.4Z"/><path class="cls-3" d="M1055.13,440h71.46v4.64q-6,0-7.89,4.64a10.17,10.17,0,0,0-.93,4.64V774.08a10.15,10.15,0,0,0,.93,4.64q1.85,4.65,7.89,4.64V788h-71.46v-4.64H1064V517.49L991.1,709.12l-13.46,36.19q-3.72,10.68-3.25,19a23.73,23.73,0,0,0,4.88,13.22q4.4,5.81,16.93,5.8L994.35,788H967L866.28,518.42V745.31a52,52,0,0,0,4.18,19,36.88,36.88,0,0,0,10,13.22q6.72,5.81,19.26,5.8V788h-71v-4.64h32.94V505.42l-22.73-60.78H828.7V440h71l1.39,4.64q-5.57,0-5.57,4.64a8.37,8.37,0,0,0,.47,4.64l92.8,248.7L1064,504.5V444.64h-10.68Z"/><path class="cls-3" d="M1353.94,783.36l.93,4.64h-70.53l-.93-4.64h8.36L1266.25,665H1198l-15.31,80.27a60.79,60.79,0,0,0,1.85,19,36.09,36.09,0,0,0,7.42,13.22q5.12,5.81,16.71,5.8l-.93,4.64h-71l.93-4.64h32.94l56.15-297.89L1218,444.64h-8.35l-.93-4.64h70.53l.93,4.64q-3.26,0-4.64,1.62a8.46,8.46,0,0,0-1.86,3.48,11.58,11.58,0,0,0,0,4.64l70.06,319.7a18.87,18.87,0,0,0,2.56,5.1,9.81,9.81,0,0,0,6.72,4.18Zm-89.09-123.42-35.26-162.4L1199,659.94Z"/><path class="cls-3" d="M1446.74,778.72q1.85,4.65,7.42,4.64V788h-71.45v-4.64h8.81V665l-49.18-220.4h-8.82l-.93-4.64h71.1l.94,4.64q-5.62,0-6.55,4.64a11.22,11.22,0,0,0,0,4.64l45,201.38,53.82-210.66h-32.94l1.39-4.64h71l-1.39,4.64q-12.53,0-20.65,6a62.11,62.11,0,0,0-13.22,13,71.42,71.42,0,0,0-8.82,19L1445.35,665.5V774.08A7.48,7.48,0,0,0,1446.74,778.72Z"/><path class="cls-3" d="M1715.86,614a263.78,263.78,0,0,1-8.36,67.74q-8.34,31.56-23,55.22t-34.11,37.35Q1630.95,788,1608.67,788t-41.76-13.69q-19.48-13.68-34.1-37.35t-23-55.22a278.95,278.95,0,0,1,0-135.48q8.36-31.56,23-55.22t34.1-37.35Q1586.4,440,1608.67,440t41.76,13.69q19.48,13.69,34.11,37.35t23,55.22A263.83,263.83,0,0,1,1715.86,614Zm-160.55,0a497.87,497.87,0,0,0,4.18,66.35q4.17,31.1,11.6,54.06T1588,770.83q9.51,13.47,20.65,13.46t20.88-13.46q9.75-13.46,16.94-36.42t11.37-54.06a529.94,529.94,0,0,0,0-132.7q-4.18-31.08-11.37-54.06t-16.94-36.42q-9.73-13.46-20.88-13.46T1588,457.17q-9.51,13.45-16.93,36.42t-11.6,54.06A498.08,498.08,0,0,0,1555.31,614Z"/></g></g></svg>