<svg xmlns="http://www.w3.org/2000/svg" xmlns:xlink="http://www.w3.org/1999/xlink" width="1920" height="5355" viewBox="0 0 1920 5355"><defs><style>.a{clip-path:url(#c);}.b{fill:#f3f3f3;}.c,.f{fill:#242424;}.c{font-size:16px;font-family:Jost;font-weight:500;}.d{fill:#d69ca4;font-size:464px;font-family:MORVA;letter-spacing:-0.01em;opacity:0.16;}.e{font-size:307px;}.e,.f{font-family:Dorsa-Regular, Dorsa;}.f{font-size:62px;}.g,.n{fill:none;}.g,.k{stroke:#707070;}.h{font-size:74px;}.h,.l{font-family:Georgia;}.i{font-weight:700;}.j{opacity:0.09;fill:url(#a);}.k{fill:#a5a5a5;}.l{font-size:24px;}.m{stroke:none;}.o{fill:#fff;}</style><linearGradient id="a" y1="0.5" x2="1" y2="0.5" gradientUnits="objectBoundingBox"><stop offset="0" stop-color="#ff526f"/><stop offset="1" stop-color="#ff79a0"/></linearGradient><clipPath id="c"><rect width="1920" height="5355"/></clipPath></defs><g id="b" class="a"><rect class="o" width="1920" height="5355"/><rect class="b" width="1920" height="1080" transform="translate(0 1082)"/><text class="c" transform="translate(800.5 137)"><tspan x="0" y="0">SOBRE MI</tspan></text><text class="c" transform="translate(913.5 137)"><tspan x="0" y="0">PROYECTOS</tspan></text><text class="c" transform="translate(1044.5 137)"><tspan x="0" y="0">CONTACTO</tspan></text><text class="d" transform="translate(107 623)"><tspan x="0" y="0">LUDMILA</tspan><tspan x="0" y="440" xml:space="preserve">  TAMAYO</tspan></text><text class="e" transform="translate(136 690)"><tspan x="0" y="0">Bienvenidos</tspan></text><g transform="translate(-6)"><g transform="translate(146 78)"><text class="f" transform="translate(29 62)"><tspan x="0" y="0">LT</tspan></text><g class="g"><circle class="m" cx="40" cy="40" r="40"/><circle class="n" cx="40" cy="40" r="39.5"/></g></g></g><text class="h" transform="translate(739 1361)"><tspan x="0" y="0">Hola! soy Ludmila Tamayo</tspan><tspan x="0" y="100">Diseñadora gráfica UX/UI</tspan></text><text class="c" transform="translate(1715 137)"><tspan x="0" y="0" xml:space="preserve">EN  l  </tspan><tspan class="i" y="0">ES</tspan></text><path class="j" d="M746.426,747.721c21.7-54.654,9.16-119.582,36.5-176.363,19.258-40,14.9-79.495-10.384-115.439-69.783-99.2-168.455-63.747-232.76-89.372-80.146-31.947-57.292-139.232-103.13-214.44-54.211-88.948-163.924-81.679-229.343-13.7-67.511,70.152-26.583,166.139-99.271,187.424-67.523,19.775-167.818-8.492-216.272,89.732-25.776,51.338-19.585,107.118,10.3,156.491C9.491,749.561,216.3,653.754,230.6,816.484c5.763,65.553-6.877,137.969,60.533,165.1,79.4,31.95,151.81-55.429,205.6-110.782C585.135,779.829,702.876,857.423,746.426,747.721Z" transform="matrix(-0.985, 0.174, -0.174, -0.985, 586.601, 2054.955)"/><g class="k" transform="translate(140 1186)"><circle class="m" cx="199" cy="199" r="199"/><circle class="n" cx="199" cy="199" r="198.5"/></g><text class="l" transform="translate(739 1544)"><tspan x="0" y="0">Terminé la carrera de Diseño Gráfico en la Universidad de Buenos Aires en 2013, </tspan><tspan x="0" y="35">tengo 8 años de experiencia en el campo del diseño, realizando tanto branding como</tspan><tspan x="0" y="70">diseño digital. </tspan><tspan x="0" y="105"></tspan><tspan x="0" y="140">Hoy en día enfoco mi carrera en el diseño UX / UI.</tspan></text></g></svg>